<svg viewBox="0 0 630 200" xmlns="http://www.w3.org/2000/svg" fill-rule="evenodd" clip-rule="evenodd" stroke-linejoin="round" stroke-miterlimit="1.414"><path d="M350.086 168.238c-11.429 14.079-30.498 26.712-56.686 26.712-24.429 0-44.261-7.416-56.416-21.817-7.194 10.981-18.849 21.517-41.384 21.517-15.666 0-27.243-6.474-34.641-17.242-9.094 10.129-23.251 19.642-41.859 19.642-26.7 0-39.9-17.4-39.9-46.5s9.3-44.4 9.3-53.7c0-2.7-1.5-4.2-4.5-4.2-2.7 0-18.3 19.2-22.2 47.4-3.3 23.7-3.3 34.5-3.3 40.8 0 6-15.6 13.8-25.8 13.8-16.8 0-32.7-13.2-32.7-32.7 0-19.5 6-66.3 6-75.6 0-6.6 6.821-12.952 23.7-12.3 7.247.28 19.8 3.6 19.8 13.5s-2.4 15.3-2.4 27.3c6-7.5 15.6-47.4 48-47.4s45 18.6 45 31.5c0 12.6-9.3 33.9-9.3 51.9 0 14.4 2.7 17.4 8.7 17.4 4.463 0 9.381-4.864 13.365-10.612-1.109-5.282-1.665-10.98-1.665-16.988 0-31.2 4.8-47.4 4.8-55.8 0-8.1-.9-9-.9-11.1 0-5.4 4.5-7.5 10.8-7.5 12 0 37.2 5.1 37.2 21 0 16.2-4.5 40.8-4.5 62.4s5.1 22.8 9 22.8c5.83 0 12.916-8.945 18.929-19.05-1.789-6.102-2.729-12.856-2.729-20.25 0-40.2 22.152-61.101 33.9-66.3 10.947-4.845 20.255-7.656 36.6-5.4 16.14 2.227 39.6 16.8 39.6 42 0 15.9-9.9 24.6-20.4 24.6-10.8 0-17.7-3.3-17.7-6.9 0-3.6 2.4-4.8 2.4-11.7 0-8.1-2.1-12-5.7-12-4.8 0-19.5 18.6-19.5 43.5 0 19.5 12 27.9 25.5 27.9 19.523 0 32.648-13.453 42.285-27.863a87.36 87.36 0 0 1-.585-10.237c0-45.9 26.228-64.492 38.233-66.069 11.005-1.446 16.301-1.673 36.767 2.169 12.384 2.324 35.4 13.5 35.4 39.6 0 26.4-16.2 47.4-39.3 47.4-14.45 0-21.073-2.609-21.294-2.983l-.004-.008c1.803 8.7 9.306 22.191 31.198 22.191 16.114 0 27.64-7.242 36.06-21.32 1.28-22.288 5.64-57.454 5.64-65.38 0-6.6-3-8.7-3-11.1 0-2.4 3-6 12.3-6s34.2 8.4 34.2 18.3-2.4 15.3-2.4 27.3c6-7.5 15.6-47.4 48-47.4s45 18.6 45 31.5c0 12.6-9.3 33.9-9.3 51.9 0 14.4 2.7 17.4 8.7 17.4 9.6 0 21.3-22.5 21.3-27.9 0-5.1 12 7.554 12 15.3 0 8.7-19.2 41.4-53.7 41.4-26.7 0-39.9-17.4-39.9-46.5s9.3-44.4 9.3-53.7c0-2.7-1.5-4.2-4.5-4.2-2.7 0-18.3 19.2-22.2 47.4-3.3 23.7-3.3 34.5-3.3 40.8 0 6-15.6 13.8-25.8 13.8-11.01 0-21.64-5.673-27.65-15.075-10.66 9.422-26.467 16.875-47.95 16.875-32.113 0-52.839-10.922-63.914-28.212zm55.724-78.342c3.3 0 5.7 2.4 5.7 5.1 0 5.244-1.779 11.759-4.435 19.941-3.27 10.071-7.734 19.113-11.375 19.113-4.2 0-6.6-2.1-6.6-7.5 0-4.886 2.566-15.401 6.09-24.283 3.184-8.025 7.06-12.371 10.62-12.371zM179.4 2.95c-6 0-22.8 3.3-22.8 21.9 0 18.3 13.2 31.8 30.6 31.8 17.7 0 18.6-16.2 18.6-32.1 0-16.2-16.2-21.6-26.4-21.6z"/></svg>